<?xml version="1.0" standalone="no"?>
<!DOCTYPE svg PUBLIC "-//W3C//DTD SVG 20010904//EN"
 "http://www.w3.org/TR/2001/REC-SVG-20010904/DTD/svg10.dtd">
<svg version="1.0" xmlns="http://www.w3.org/2000/svg"
 width="256.000000pt" height="256.000000pt" viewBox="0 0 256.000000 256.000000"
 preserveAspectRatio="xMidYMid meet">
<metadata>
Created by potrace 1.14, written by Peter Selinger 2001-2017
</metadata>
<g transform="translate(0.000000,256.000000) scale(0.100000,-0.100000)"
fill="#000000" stroke="none">
<path d="M538 2326 c-48 -13 -62 -21 -111 -65 -61 -55 -62 -59 -198 -940 -116
-752 -128 -841 -118 -888 19 -95 105 -182 200 -202 33 -7 322 -11 863 -11 893
0 863 -2 939 61 83 68 75 34 218 958 143 930 139 887 79 981 -36 55 -84 89
-153 107 -73 19 -1648 18 -1719 -1z m1737 -109 c28 -15 47 -37 64 -71 l25 -50
-128 -830 c-70 -456 -134 -842 -142 -857 -8 -15 -31 -41 -51 -56 l-36 -28
-841 -3 -842 -2 -46 29 c-34 22 -50 40 -63 75 l-18 46 127 827 c70 454 133
838 141 852 17 33 53 67 85 80 16 6 328 10 855 10 l830 1 40 -23z"/>
<path d="M665 1938 c-2 -7 -61 -299 -130 -648 -70 -349 -129 -645 -132 -658
l-5 -23 143 3 143 3 133 660 c72 363 132 663 133 668 0 4 -63 7 -140 7 -104 0
-142 -3 -145 -12z"/>
<path d="M1142 1287 c-73 -364 -132 -665 -132 -669 0 -5 63 -8 140 -8 137 0
140 0 145 23 4 17 85 429 85 433 0 0 64 4 143 7 179 8 271 27 373 77 132 65
224 180 253 318 16 75 14 185 -5 248 -21 73 -93 152 -171 187 -87 39 -163 47
-443 47 l-255 0 -133 -663z m655 412 c61 -30 83 -71 83 -154 -1 -123 -72 -208
-198 -234 -29 -6 -98 -11 -153 -11 l-101 0 6 28 c10 44 76 393 76 399 0 3 54
4 119 1 99 -4 127 -9 168 -29z"/>
</g>
</svg>
